<svg version="1.1" id="Layer_1" xmlns="http://www.w3.org/2000/svg" xmlns:xlink="http://www.w3.org/1999/xlink" x="0px" y="0px"
	 width="100%" viewBox="0 0 200 200" enable-background="new 0 0 200 200" xml:space="preserve">
<path fill="none" opacity="1.000000" stroke="none" 
	d="
M129.000000,201.000000 
	C86.000000,201.000000 43.500004,201.000000 1.000006,201.000000 
	C1.000004,134.333344 1.000004,67.666679 1.000002,1.000015 
	C67.666656,1.000010 134.333313,1.000010 200.999969,1.000005 
	C200.999985,67.666649 200.999985,134.333298 201.000000,200.999969 
	C177.166672,201.000000 153.333328,201.000000 129.000000,201.000000 
M134.317810,87.391281 
	C134.177414,87.001419 134.037018,86.611565 133.549545,86.027420 
	C133.549545,86.027420 133.165466,85.924049 133.482727,85.337433 
	C136.420151,84.786621 136.662308,83.285446 135.499832,80.818344 
	C135.342529,79.884438 135.185226,78.950539 135.511765,77.865982 
	C135.682968,77.585838 135.854156,77.305687 136.758545,76.651657 
	C136.518616,74.080032 136.278687,71.508400 135.856598,68.360474 
	C134.453140,66.836327 138.593033,63.629963 134.039764,62.512093 
	C134.058975,62.337330 134.078171,62.162571 134.664688,61.770958 
	C133.043365,58.781612 131.422058,55.792263 129.626633,52.240810 
	C128.765549,51.451462 127.904449,50.662109 126.783516,49.278248 
	C125.204018,47.827606 123.624512,46.376961 121.690216,44.356297 
	C116.256821,37.507053 108.183914,36.428120 100.547852,36.242134 
	C95.603523,36.121712 90.500504,38.881962 85.636543,40.781467 
	C83.517769,41.608906 81.820236,43.514992 79.338188,45.239632 
	C76.525314,48.117386 73.712440,50.995140 70.330261,54.079983 
	C68.318665,59.231045 65.827911,64.262924 64.504120,69.585060 
	C63.872704,72.123619 65.459061,75.213814 65.997581,78.716553 
	C65.972336,79.158966 65.947098,79.601387 65.506927,80.552872 
	C66.421394,82.377800 67.335861,84.202736 68.202049,86.434288 
	C68.429123,86.948540 68.656197,87.462784 68.838303,88.484612 
	C69.202400,89.025490 69.566505,89.566360 70.003685,90.725388 
	C71.333542,92.182709 72.663406,93.640038 74.210487,95.705742 
	C75.464165,97.412949 76.717834,99.120155 78.318359,101.496292 
	C80.044434,107.727951 81.747002,109.161133 88.031258,109.211090 
	C94.692215,109.264061 101.361122,109.325073 108.014626,109.070602 
	C118.150993,108.682915 117.996086,108.567978 117.932167,118.818680 
	C117.910011,122.372131 116.555344,123.541885 113.246674,123.510918 
	C105.083992,123.434509 96.918571,123.574852 88.757881,123.427452 
	C87.276649,123.400688 84.787292,122.727501 84.518837,121.828514 
	C83.380447,118.016251 81.175766,119.101204 78.813797,119.678925 
	C78.825478,125.767838 81.220100,128.981659 86.245338,129.079514 
	C96.071175,129.270813 105.906319,129.274384 115.731621,129.069153 
	C120.063339,128.978653 123.328987,126.456345 123.314514,122.018311 
	C123.296104,116.374496 125.229805,110.333633 121.026512,105.139282 
	C120.554581,104.556068 121.200844,103.068016 121.934143,101.813377 
	C124.315971,99.252823 126.697800,96.692268 129.639542,93.825920 
	C130.112549,92.903954 130.585556,91.981987 131.613876,90.766861 
	C132.195679,89.850121 132.777481,88.933380 133.675293,87.718849 
	C133.675293,87.718849 133.929779,87.367035 134.317810,87.391281 
z"/>
<path fill="#E68567" opacity="1.000000" stroke="none" 
	d="
M121.328568,101.999557 
	C121.200844,103.068016 120.554581,104.556068 121.026512,105.139282 
	C125.229805,110.333633 123.296104,116.374496 123.314514,122.018311 
	C123.328987,126.456345 120.063339,128.978653 115.731621,129.069153 
	C105.906319,129.274384 96.071175,129.270813 86.245338,129.079514 
	C81.220100,128.981659 78.825478,125.767838 78.813797,119.678925 
	C81.175766,119.101204 83.380447,118.016251 84.518837,121.828514 
	C84.787292,122.727501 87.276649,123.400688 88.757881,123.427452 
	C96.918571,123.574852 105.083992,123.434509 113.246674,123.510918 
	C116.555344,123.541885 117.910011,122.372131 117.932167,118.818680 
	C117.996086,108.567978 118.150993,108.682915 108.014626,109.070602 
	C101.361122,109.325073 94.692215,109.264061 88.031258,109.211090 
	C81.747002,109.161133 80.044434,107.727951 78.244202,100.782242 
	C78.320038,97.308914 78.470024,94.549629 78.666351,91.435120 
	C79.465065,89.378204 80.217430,87.676514 81.315742,85.805496 
	C83.726822,85.135773 85.784538,84.242645 87.858391,84.203461 
	C96.497147,84.040199 105.150192,83.906898 113.777161,84.264732 
	C116.551109,84.379799 119.261024,86.038582 122.127609,87.352814 
	C122.550591,89.472824 122.846184,91.231140 122.721664,93.013016 
	C120.915382,93.003822 119.529228,92.971062 118.098099,92.544357 
	C116.787674,91.141312 115.547104,89.296516 114.252754,89.257957 
	C105.481308,88.996704 96.698509,89.119553 87.919380,89.112251 
	C85.322769,89.110092 83.789467,90.145950 84.036179,93.322098 
	C84.026260,94.098320 84.045555,94.542130 84.037872,95.318726 
	C84.023262,96.096130 84.035645,96.540733 84.022621,97.402023 
	C84.015717,99.209663 84.034218,100.600616 84.156273,102.119751 
	C84.259834,102.247925 84.724449,102.342964 84.724449,102.342964 
	C84.724449,102.342964 85.158638,102.114098 85.335907,102.144806 
	C85.513168,102.175522 85.872086,102.200806 85.993988,102.461533 
	C89.751335,103.111664 93.386780,103.501060 97.463470,103.912338 
	C100.262024,103.920944 102.619308,103.907677 105.411911,103.921700 
	C109.572815,103.331978 113.298401,102.714958 117.323944,102.004166 
	C118.858788,101.940117 120.093674,101.969841 121.328568,101.999557 
z"/>
<path fill="#C24E53" opacity="1.000000" stroke="none" 
	d="
M122.045013,44.926315 
	C123.624512,46.376961 125.204018,47.827606 126.862335,49.922699 
	C125.831543,51.181992 124.764755,51.897930 123.603111,52.389866 
	C121.422356,53.313385 119.186768,54.107395 116.693420,55.143051 
	C113.936028,56.863850 111.459190,58.396858 108.620239,59.944038 
	C107.535851,59.922916 106.813568,59.887623 106.027496,59.500679 
	C101.630684,54.582870 98.802437,54.798409 94.607178,59.956699 
	C89.338058,58.935799 84.469879,57.818134 79.551544,57.003220 
	C76.993057,56.579308 74.346039,56.689781 71.601791,56.310829 
	C71.276237,55.332832 71.087906,54.602863 70.899567,53.872894 
	C73.712440,50.995140 76.525314,48.117386 79.867630,45.208092 
	C80.673225,45.387028 80.949379,45.597504 81.211761,46.194221 
	C81.803055,50.038418 84.087799,51.013840 87.309525,50.987892 
	C96.536964,50.913570 105.765495,50.937832 114.993401,50.974007 
	C118.539490,50.987904 120.708260,49.601551 120.949318,45.611076 
	C121.438057,45.261284 121.741539,45.093800 122.045013,44.926315 
z"/>
<path fill="#42334F" opacity="1.000000" stroke="none" 
	d="
M81.225525,45.807976 
	C80.949379,45.597504 80.673225,45.387028 80.164230,45.053875 
	C81.820236,43.514992 83.517769,41.608906 85.636543,40.781467 
	C90.500504,38.881962 95.603523,36.121712 100.547852,36.242134 
	C108.183914,36.428120 116.256821,37.507053 121.867615,44.641304 
	C121.741539,45.093800 121.438057,45.261284 120.503357,45.644478 
	C106.989922,45.842781 94.107727,45.825378 81.225525,45.807976 
z"/>
<path fill="#7C3F50" opacity="1.000000" stroke="none" 
	d="
M122.000229,86.991127 
	C119.261024,86.038582 116.551109,84.379799 113.777161,84.264732 
	C105.150192,83.906898 96.497147,84.040199 87.858391,84.203461 
	C85.784538,84.242645 83.726822,85.135773 80.942856,85.656860 
	C76.232788,85.794266 72.241554,85.910965 68.250320,86.027664 
	C67.335861,84.202736 66.421394,82.377800 65.995422,80.556763 
	C69.976509,80.948891 73.469101,81.337128 77.424362,81.817749 
	C93.603088,81.850227 109.319130,81.790306 125.466690,81.770714 
	C128.923950,81.575386 131.949707,81.339729 134.975449,81.104073 
	C136.662308,83.285446 136.420151,84.786621 132.911133,85.717903 
	C128.893097,86.395958 125.446663,86.693542 122.000229,86.991127 
z"/>
<path fill="#C64C52" opacity="1.000000" stroke="none" 
	d="
M104.976601,103.894402 
	C102.619308,103.907677 100.262024,103.920944 97.385513,103.544235 
	C93.509834,99.281700 89.681221,100.853569 85.872086,102.200806 
	C85.872086,102.200806 85.513168,102.175522 85.059296,102.109879 
	C84.421181,102.026672 84.236946,102.009125 84.052711,101.991570 
	C84.034218,100.600616 84.015717,99.209663 84.486588,97.406242 
	C96.376183,96.995186 107.780594,97.158028 119.173126,96.862724 
	C121.470192,96.803185 123.722244,95.007095 126.382111,94.008041 
	C127.539330,94.046860 128.309479,94.089279 129.079620,94.131706 
	C126.697800,96.692268 124.315971,99.252823 121.631355,101.906464 
	C120.093674,101.969841 118.858788,101.940117 116.978485,101.775864 
	C112.383949,101.567581 107.839867,98.494965 104.976601,103.894402 
z"/>
<path fill="#F09A72" opacity="1.000000" stroke="none" 
	d="
M106.091286,59.852329 
	C106.813568,59.887623 107.535851,59.922916 108.863419,60.252922 
	C111.310059,61.029625 113.139816,61.868271 114.994865,61.928543 
	C121.237885,62.131378 127.489891,62.057205 133.853012,62.151741 
	C133.967560,62.214474 134.097382,61.987812 134.097382,61.987812 
	C134.078171,62.162571 134.058975,62.337330 134.067719,63.148788 
	C134.015411,64.844604 133.935120,65.903732 133.438171,66.981140 
	C122.680191,66.999527 112.338890,66.999611 102.250854,66.779495 
	C103.613861,64.743439 104.723602,62.927578 105.892525,60.795788 
	C105.998230,60.270679 106.044754,60.061504 106.091286,59.852329 
z"/>
<path fill="#F7D08F" opacity="1.000000" stroke="none" 
	d="
M135.237640,80.961212 
	C131.949707,81.339729 128.923950,81.575386 125.384705,81.465752 
	C124.512840,80.358894 124.154465,79.597321 123.608345,78.585304 
	C121.630180,77.484917 119.839752,76.634964 118.247383,75.468323 
	C123.745911,73.754501 129.051224,72.273956 134.106873,76.354057 
	C134.451630,77.104813 134.739777,77.560722 135.027924,78.016640 
	C135.185226,78.950539 135.342529,79.884438 135.237640,80.961212 
z"/>
<path fill="#F7D290" opacity="1.000000" stroke="none" 
	d="
M76.961685,81.725357 
	C73.469101,81.337128 69.976509,80.948891 66.202896,80.302231 
	C65.947098,79.601387 65.972336,79.158966 66.246063,78.333084 
	C66.494545,77.949608 66.949478,77.853310 67.211929,77.862732 
	C67.497421,77.428116 67.520462,76.984070 67.575592,76.285904 
	C67.508247,75.712372 67.408821,75.392952 67.400131,74.817429 
	C67.503967,74.380646 67.517052,74.199982 67.959732,74.019653 
	C72.296547,74.890045 76.949471,71.888031 79.995819,76.537300 
	C79.454399,77.527168 79.093636,78.269768 78.514618,79.183647 
	C77.851471,80.145073 77.406578,80.935211 76.961685,81.725357 
z"/>
<path fill="#8B4352" opacity="1.000000" stroke="none" 
	d="
M68.226181,86.230972 
	C72.241554,85.910965 76.232788,85.794266 80.596909,85.826187 
	C80.217430,87.676514 79.465065,89.378204 78.308090,91.477280 
	C76.600067,92.948883 75.296669,94.023125 73.993263,95.097359 
	C72.663406,93.640038 71.333542,92.182709 70.121658,90.192719 
	C69.787506,89.099052 69.335388,88.538040 68.883270,87.977036 
	C68.656197,87.462784 68.429123,86.948540 68.226181,86.230972 
z"/>
<path fill="#984552" opacity="1.000000" stroke="none" 
	d="
M129.359589,93.978813 
	C128.309479,94.089279 127.539330,94.046860 126.108650,93.871010 
	C124.679344,93.488213 123.910561,93.238831 123.141785,92.989456 
	C122.846184,91.231140 122.550591,89.472824 122.127609,87.352814 
	C125.446663,86.693542 128.893097,86.395958 132.752502,86.011215 
	C133.165466,85.924049 133.549545,86.027420 133.711517,86.317047 
	C133.843185,86.863770 133.861954,87.117218 133.929779,87.367035 
	C133.929779,87.367035 133.675293,87.718849 133.251282,87.905777 
	C132.237686,89.081818 131.648132,90.070923 131.058563,91.060028 
	C130.585556,91.981987 130.112549,92.903954 129.359589,93.978813 
z"/>
<path fill="#584455" opacity="1.000000" stroke="none" 
	d="
M67.309395,75.073532 
	C67.408821,75.392952 67.508247,75.712372 67.413940,76.608704 
	C67.129959,77.408180 67.039719,77.630745 66.949478,77.853310 
	C66.949478,77.853310 66.494545,77.949608 66.267700,78.001877 
	C65.459061,75.213814 63.872704,72.123619 64.504120,69.585060 
	C65.827911,64.262924 68.318665,59.231045 70.614914,53.976440 
	C71.087906,54.602863 71.276237,55.332832 71.398529,56.626358 
	C70.207069,60.769058 69.081657,64.348206 67.825714,68.177864 
	C67.480324,68.948662 67.265480,69.468956 66.823853,70.000824 
	C66.597069,70.012413 66.143021,70.022705 65.880013,69.895531 
	C65.623398,71.802277 65.629791,73.836189 65.636185,75.870110 
	C65.724396,75.728958 65.823273,75.593178 65.897827,75.445145 
	C65.972389,75.297081 66.022636,75.136772 66.390076,75.003792 
	C66.900879,75.041679 67.105133,75.057610 67.309395,75.073532 
z"/>
<path fill="#CF5B57" opacity="1.000000" stroke="none" 
	d="
M116.973976,54.955261 
	C119.186768,54.107395 121.422356,53.313385 123.603111,52.389866 
	C124.764755,51.897930 125.831543,51.181992 126.992249,50.219955 
	C127.904449,50.662109 128.765549,51.451462 129.470856,52.707287 
	C129.273956,53.763321 129.232834,54.352882 128.716156,54.960716 
	C124.485039,54.971081 120.729507,54.963169 116.973976,54.955261 
z"/>
<path fill="#B44F55" opacity="1.000000" stroke="none" 
	d="
M74.101875,95.401550 
	C75.296669,94.023125 76.600067,92.948883 78.261742,91.832497 
	C78.470024,94.549629 78.320038,97.308914 78.070778,100.447784 
	C76.717834,99.120155 75.464165,97.412949 74.101875,95.401550 
z"/>
<path fill="#584455" opacity="1.000000" stroke="none" 
	d="
M129.191727,54.942440 
	C129.232834,54.352882 129.273956,53.763321 129.557892,52.988342 
	C131.422058,55.792263 133.043365,58.781612 134.381042,61.879387 
	C134.097382,61.987812 133.967560,62.214474 133.820221,61.815765 
	C132.179169,59.258846 130.685440,57.100643 129.191727,54.942440 
z"/>
<path fill="#42334F" opacity="1.000000" stroke="none" 
	d="
M133.854843,66.962852 
	C133.935120,65.903732 134.015411,64.844604 134.163330,63.394562 
	C138.593033,63.629963 134.453140,66.836327 135.917603,69.088295 
	C135.922089,71.864265 135.865570,73.912415 135.539825,75.941635 
	C135.090759,75.919205 134.910889,75.915688 134.645859,75.517296 
	C134.325424,72.402573 134.090134,69.682709 133.854843,66.962852 
z"/>
<path fill="#EE8968" opacity="1.000000" stroke="none" 
	d="
M135.809036,75.960564 
	C135.865570,73.912415 135.922089,71.864265 136.008698,69.376450 
	C136.278687,71.508400 136.518616,74.080032 136.351654,76.569519 
	C135.899506,76.311768 135.854263,76.136162 135.809036,75.960564 
z"/>
<path fill="#7C3F50" opacity="1.000000" stroke="none" 
	d="
M131.336212,90.913445 
	C131.648132,90.070923 132.237686,89.081818 133.093262,88.054680 
	C132.777481,88.933380 132.195679,89.850121 131.336212,90.913445 
z"/>
<path fill="#42334F" opacity="1.000000" stroke="none" 
	d="
M68.860786,88.230820 
	C69.335388,88.538040 69.787506,89.099052 70.085114,89.883644 
	C69.566505,89.566360 69.202400,89.025490 68.860786,88.230820 
z"/>
<path fill="#584455" opacity="1.000000" stroke="none" 
	d="
M135.539825,75.941635 
	C135.854263,76.136162 135.899506,76.311768 135.985046,76.756454 
	C135.854156,77.305687 135.682968,77.585838 135.269836,77.941315 
	C134.739777,77.560722 134.451630,77.104813 134.272491,76.296616 
	C134.381531,75.944328 134.731003,75.912163 134.731003,75.912163 
	C134.910889,75.915688 135.090759,75.919205 135.539825,75.941635 
z"/>
<path fill="#7C3F50" opacity="1.000000" stroke="none" 
	d="
M134.123795,87.379158 
	C133.861954,87.117218 133.843185,86.863770 133.885040,86.414192 
	C134.037018,86.611565 134.177414,87.001419 134.123795,87.379158 
z"/>
<path fill="#A84550" opacity="1.000000" stroke="none" 
	d="
M84.065392,92.989685 
	C83.789467,90.145950 85.322769,89.110092 87.919380,89.112251 
	C96.698509,89.119553 105.481308,88.996704 114.252754,89.257957 
	C115.547104,89.296516 116.787674,91.141312 118.040062,92.559288 
	C118.027000,92.968163 117.916801,93.011444 117.456177,93.008438 
	C106.018829,93.000175 95.042107,92.994934 84.065392,92.989685 
z"/>
<path fill="#BC4851" opacity="1.000000" stroke="none" 
	d="
M122.721664,93.013016 
	C123.910561,93.238831 124.679344,93.488213 125.721581,93.874619 
	C123.722244,95.007095 121.470192,96.803185 119.173126,96.862724 
	C107.780594,97.158028 96.376183,96.995186 84.511993,96.989563 
	C84.035645,96.540733 84.023262,96.096130 84.500427,95.322701 
	C94.258339,94.995384 103.528725,95.096725 112.793236,94.908737 
	C114.513214,94.873833 116.209557,93.673759 117.916801,93.011444 
	C117.916801,93.011444 118.027000,92.968163 118.085037,92.953232 
	C119.529228,92.971062 120.915382,93.003822 122.721664,93.013016 
z"/>
<path fill="#B3434F" opacity="1.000000" stroke="none" 
	d="
M117.456177,93.008438 
	C116.209557,93.673759 114.513214,94.873833 112.793236,94.908737 
	C103.528725,95.096725 94.258339,94.995384 84.527420,94.989906 
	C84.045555,94.542130 84.026260,94.098320 84.036179,93.322098 
	C95.042107,92.994934 106.018829,93.000175 117.456177,93.008438 
z"/>
<path fill="#CD5656" opacity="1.000000" stroke="none" 
	d="
M105.411911,103.921700 
	C107.839867,98.494965 112.383949,101.567581 116.678528,101.869637 
	C113.298401,102.714958 109.572815,103.331978 105.411911,103.921700 
z"/>
<path fill="#CD5555" opacity="1.000000" stroke="none" 
	d="
M85.993988,102.461533 
	C89.681221,100.853569 93.509834,99.281700 96.944260,103.522354 
	C93.386780,103.501060 89.751335,103.111664 85.993988,102.461533 
z"/>
<path fill="#CD5555" opacity="1.000000" stroke="none" 
	d="
M84.156273,102.119751 
	C84.236946,102.009125 84.421181,102.026672 84.882027,102.079163 
	C85.158638,102.114098 84.724449,102.342964 84.724449,102.342964 
	C84.724449,102.342964 84.259834,102.247925 84.156273,102.119751 
z"/>
<path fill="#F09A72" opacity="1.000000" stroke="none" 
	d="
M67.956253,67.927353 
	C69.081657,64.348206 70.207069,60.769058 71.535736,56.874390 
	C74.346039,56.689781 76.993057,56.579308 79.551544,57.003220 
	C84.469879,57.818134 89.338058,58.935799 94.790375,60.103252 
	C95.581856,60.493618 95.790276,60.726276 95.995087,61.331245 
	C97.019142,63.455994 98.027100,65.226082 98.673019,67.198395 
	C88.192741,67.576195 78.074501,67.751778 67.956253,67.927353 
z"/>
<path fill="#843C4F" opacity="1.000000" stroke="none" 
	d="
M81.211761,46.194221 
	C94.107727,45.825378 106.989922,45.842781 120.318085,45.826786 
	C120.708260,49.601551 118.539490,50.987904 114.993401,50.974007 
	C105.765495,50.937832 96.536964,50.913570 87.309525,50.987892 
	C84.087799,51.013840 81.803055,50.038418 81.211761,46.194221 
z"/>
<path fill="#E37C64" opacity="1.000000" stroke="none" 
	d="
M128.716156,54.960716 
	C130.685440,57.100643 132.179169,59.258846 133.705673,61.753029 
	C127.489891,62.057205 121.237885,62.131378 114.994865,61.928543 
	C113.139816,61.868271 111.310059,61.029625 109.225533,60.238750 
	C111.459190,58.396858 113.936028,56.863850 116.693420,55.143047 
	C120.729507,54.963169 124.485039,54.971081 128.716156,54.960716 
z"/>
<path fill="#F4AF7C" opacity="1.000000" stroke="none" 
	d="
M95.978989,60.976589 
	C95.790276,60.726276 95.581856,60.493618 95.170517,60.132065 
	C98.802437,54.798409 101.630684,54.582870 106.027496,59.500679 
	C106.044754,60.061504 105.998230,60.270679 105.455826,60.766098 
	C101.966293,61.027088 98.972641,61.001839 95.978989,60.976589 
z"/>
<path fill="#EAB582" opacity="1.000000" stroke="none" 
	d="
M77.424362,81.817749 
	C77.406578,80.935211 77.851471,80.145073 79.011566,79.182091 
	C94.416534,78.951416 109.106316,78.893578 123.796082,78.835739 
	C124.154465,79.597321 124.512840,80.358894 124.953194,81.425423 
	C109.319130,81.790306 93.603088,81.850227 77.424362,81.817749 
z"/>
<path fill="#F6C187" opacity="1.000000" stroke="none" 
	d="
M67.825714,68.177864 
	C78.074501,67.751778 88.192741,67.576195 99.042603,67.198402 
	C100.515335,66.997353 101.256454,66.998520 101.997581,66.999695 
	C112.338890,66.999611 122.680191,66.999527 133.438171,66.981140 
	C134.090134,69.682709 134.325424,72.402573 134.645859,75.517296 
	C134.731003,75.912163 134.381531,75.944328 134.215912,76.001770 
	C129.051224,72.273956 123.745911,73.754501 117.979698,75.396652 
	C116.994316,75.447243 116.474670,75.252838 115.629997,74.853706 
	C111.957146,74.102623 108.591766,73.017998 105.265312,73.126503 
	C99.109673,73.327278 92.976814,74.226418 86.458984,74.893623 
	C84.114494,75.398384 82.145485,75.844200 80.176483,76.290024 
	C76.949471,71.888031 72.296547,74.890045 67.893364,73.615631 
	C67.281807,72.137268 67.166222,71.063255 67.050636,69.989243 
	C67.265480,69.468956 67.480324,68.948662 67.825714,68.177864 
z"/>
<path fill="#F7C388" opacity="1.000000" stroke="none" 
	d="
M102.250854,66.779495 
	C101.256454,66.998520 100.515335,66.997353 99.404633,66.996170 
	C98.027100,65.226082 97.019142,63.455994 95.995087,61.331245 
	C98.972641,61.001839 101.966293,61.027088 105.396645,61.082031 
	C104.723602,62.927578 103.613861,64.743439 102.250854,66.779495 
z"/>
<path fill="#EB8567" opacity="1.000000" stroke="none" 
	d="
M115.955032,75.058434 
	C116.474670,75.252838 116.994316,75.447243 117.781639,75.713333 
	C119.839752,76.634964 121.630180,77.484917 123.608353,78.585297 
	C109.106316,78.893578 94.416534,78.951416 79.229813,79.010811 
	C79.093636,78.269768 79.454399,77.527168 79.995819,76.537300 
	C82.145485,75.844200 84.114494,75.398384 86.824219,75.128761 
	C97.028313,75.222778 106.491669,75.140610 115.955032,75.058434 
z"/>
<path fill="#42334F" opacity="1.000000" stroke="none" 
	d="
M66.823853,70.000824 
	C67.166222,71.063255 67.281807,72.137268 67.463760,73.615295 
	C67.517052,74.199982 67.503967,74.380646 67.400131,74.817429 
	C67.105133,75.057610 66.900879,75.041679 66.342194,74.591797 
	C66.039528,72.779465 66.091270,71.401085 66.143021,70.022705 
	C66.143021,70.022705 66.597069,70.012413 66.823853,70.000824 
z"/>
<path fill="#816A65" opacity="1.000000" stroke="none" 
	d="
M67.211929,77.862732 
	C67.039719,77.630745 67.129959,77.408180 67.381851,76.862816 
	C67.520462,76.984070 67.497421,77.428116 67.211929,77.862732 
z"/>
<path fill="#EE8968" opacity="1.000000" stroke="none" 
	d="
M65.880013,69.895531 
	C66.091270,71.401085 66.039528,72.779465 66.035660,74.569839 
	C66.022636,75.136772 65.972389,75.297081 65.897827,75.445145 
	C65.823273,75.593178 65.724396,75.728958 65.636185,75.870110 
	C65.629791,73.836189 65.623398,71.802277 65.880013,69.895531 
z"/>
<path fill="#E47D65" opacity="1.000000" stroke="none" 
	d="
M115.629997,74.853706 
	C106.491669,75.140610 97.028313,75.222778 87.199707,75.069817 
	C92.976814,74.226418 99.109673,73.327278 105.265312,73.126503 
	C108.591766,73.017998 111.957146,74.102623 115.629997,74.853706 
z"/>
</svg>